# xmcd
#
# Track frame offsets: 
#        150
#        16088
#        34380
#        54198
#        72316
#        88249
#        103762
#        121436
#        140170
#        156300
#        169090
#        186431
#        200585
#        220336
#        235384
#        252923
#        266928
#        281311
#
# Disc length: 3947 seconds
#
# Revision: 1
# Processed by: cddbd v1.5.2PL0 Copyright (c) Steve Scherf et al.
# Submitted via: ExactAudioCopy v0.95b3
#
DISCID=180f6912
DTITLE=Various Artist - Country Heat 2007
DYEAR=2007
DGENRE=Country
TTITLE0=Kenny Chesney - Living in Fast Forward
TTITLE1=Brad Paisley - The World
TTITLE2=Brooks and Dunn - Building Bridges
TTITLE3=Carrie Underwood - Don't Forget to Remember Me
TTITLE4=Aaron Lines - Lights of My Hometown
TTITLE5=Sara Evans - Cheatin'
TTITLE6=Phil Vassar - Last Day of My Life
TTITLE7=Aaron Pritchett - Hold My Beer
TTITLE8=Jason Aldean - Why
TTITLE9=Gretchen Wilson - California Girls
TTITLE10=Adam Gregory - Get It On
TTITLE11=Montgomery Gentry - She Don't Tell Me To
TTITLE12=Keith Anderson - Every Time I Hear Your Name
TTITLE13=Gord Bamford - I Would for You
TTITLE14=Craig Morgan - I Got You
TTITLE15=Miranda Lambert - Kerosene
TTITLE16=Duane Steele - Comin' Back Around
TTITLE17=Martina McBride - 'Till I Can Make It on My Own
EXTD=
EXTT0=
EXTT1=
EXTT2=
EXTT3=
EXTT4=
EXTT5=
EXTT6=
EXTT7=
EXTT8=
EXTT9=
EXTT10=
EXTT11=
EXTT12=
EXTT13=
EXTT14=
EXTT15=
EXTT16=
EXTT17=
PLAYORDER=
